<mxfile host="app.diagrams.net" modified="2023-04-14T12:50:53.075Z" agent="Mozilla/5.0 (Macintosh; Intel Mac OS X 10.15; rv:109.0) Gecko/20100101 Firefox/111.0" version="21.1.4" etag="Yx7WWXb9ebaJWP0GnL3M" type="github">
  <diagram name="Page-1" id="8OUQyAbaMCnGDf9eZ5ip">
    <mxGraphModel>
      <root>
        <mxCell id="0" />
        <mxCell id="1" parent="0" />
      </root>
    </mxGraphModel>
  </diagram>
</mxfile>
